# xmcd
#
# Track frame offsets: 
#        150
#        11462
#        25212
#        38237
#        49657
#        61722
#        74630
#        87602
#        99425
#        112465
#        124465
#        137477
#        148762
#        161435
#        171890
#        183620
#        195627
#
# Disc length: 2768 seconds
#
# Revision: 1
# Processed by: cddbd v1.5.2PL0 Copyright (c) Steve Scherf et al.
# Submitted via: ExactAudioCopyFreeDBPlugin 1.0
#
DISCID=fa0ace11
DTITLE=Robert Johnson - The Perfect Blues Collection [disc 8] Robert J
DTITLE=ohnson^ King of the Delta Blues Singers
DYEAR=2011
DGENRE=Blues
TTITLE0=Cross Road Blues
TTITLE1=Terraplane Blues
TTITLE2=Come On in My Kitchen
TTITLE3=Walkin' Blues
TTITLE4=Last Fair Deal Gone Down
TTITLE5=32-20 Blues
TTITLE6=Kind Hearted Woman Blues
TTITLE7=If I Had Possession over Judgement Day
TTITLE8=Preachin' Blues (Up Jumped the Devil)
TTITLE9=When You Got a Good Friend
TTITLE10=Ramblin' on My Mind
TTITLE11=Stones in My Passway
TTITLE12=Traveling Riverside Blues
TTITLE13=Milkcow's Calf Blues
TTITLE14=Me and the Devil Blues
TTITLE15=Hell Hound on My Trail
TTITLE16=Traveling Riverside Blues
EXTD=
EXTT0=
EXTT1=
EXTT2=
EXTT3=
EXTT4=
EXTT5=
EXTT6=
EXTT7=
EXTT8=
EXTT9=
EXTT10=
EXTT11=
EXTT12=
EXTT13=
EXTT14=
EXTT15=
EXTT16=
PLAYORDER=
